<?xml version="1.0" encoding="UTF-8" standalone="no"?>
<!DOCTYPE svg PUBLIC "-//W3C//DTD SVG 1.1//EN" "http://www.w3.org/Graphics/SVG/1.1/DTD/svg11.dtd">
<!--Generated by Intaglio, www.PurgatoryDesign.com-->
<svg version="1.1" viewBox="91,27,158,186" width="158" height="186" xmlns="http://www.w3.org/2000/svg" xmlns:xlink="http://www.w3.org/1999/xlink"><g><g><path fill="#000" d="M219.685,184.252 L233.858,184.252 L233.858,212.598 L219.685,212.598 Z"/><path fill="#fff" stroke="#000" d="M248.032,184.252 L205.512,184.252 L205.512,28.3465 L248.032,28.3465 Z"/><path fill="#000" d="M205.512,120.472 L248.032,106.299 L248.032,92.126 L205.512,106.299 Z"/></g><g><path fill="#000" d="M106.299,184.252 L120.472,184.252 L120.472,212.598 L106.299,212.598 Z"/><path fill="#fff" stroke="#000" d="M134.646,184.252 L92.126,184.252 L92.126,28.3465 L134.646,28.3465 Z"/><path fill="#000" d="M92.126,120.472 L134.646,106.299 L134.646,92.126 L92.126,106.299 Z"/><path fill="#000" d="M92.126,148.819 L134.646,134.646 L134.646,120.472 L92.126,134.646 Z"/><path fill="#000" d="M92.126,92.126 L134.646,77.9528 L134.646,63.7795 L92.126,77.9528 Z"/></g><g><path fill="#000" d="M162.992,184.252 L177.165,184.252 L177.165,212.598 L162.992,212.598 Z"/><path fill="#fff" stroke="#000" d="M191.339,184.252 L148.819,184.252 L148.819,28.3465 L191.339,28.3465 Z"/><path fill="#000" d="M148.819,134.646 L191.339,120.472 L191.339,106.299 L148.819,120.472 Z"/><path fill="#000" d="M148.819,106.299 L191.339,92.126 L191.339,77.9528 L148.819,92.126 Z"/></g></g></svg>
